<mxfile host="app.diagrams.net" agent="Mozilla/5.0 (Windows NT 10.0; Win64; x64) AppleWebKit/537.36 (KHTML, like Gecko) Chrome/135.0.0.0 Safari/537.36" version="26.2.9">
  <diagram name="Page-1" id="dbpEhW81NDK-AUz-KROS">
    <mxGraphModel dx="1351" dy="571" grid="1" gridSize="10" guides="1" tooltips="1" connect="1" arrows="1" fold="1" page="1" pageScale="1" pageWidth="827" pageHeight="1169" math="0" shadow="0">
      <root>
        <mxCell id="0" />
        <mxCell id="1" parent="0" />
        <mxCell id="eLIDJb3raY8ClQRbz5P2-5" value="" style="shape=folder;fontStyle=1;spacingTop=10;tabWidth=123;tabHeight=24;tabPosition=left;html=1;rounded=0;shadow=0;comic=0;labelBackgroundColor=none;strokeColor=#000000;strokeWidth=1;fillColor=#ffffff;fontFamily=Verdana;fontSize=10;fontColor=#000000;align=center;" vertex="1" parent="1">
          <mxGeometry x="190" y="90" width="515" height="360" as="geometry" />
        </mxCell>
        <mxCell id="eLIDJb3raY8ClQRbz5P2-6" value="&lt;font style=&quot;font-size: 12px;&quot;&gt;Restaurant&lt;/font&gt;" style="shape=folder;fontStyle=1;spacingTop=10;tabWidth=50;tabHeight=17;tabPosition=left;html=1;rounded=0;shadow=0;comic=0;labelBackgroundColor=none;strokeColor=#000000;strokeWidth=1;fillColor=#ffffff;fontFamily=Verdana;fontSize=10;fontColor=#000000;align=center;" vertex="1" parent="1">
          <mxGeometry x="207" y="290" width="112" height="70" as="geometry" />
        </mxCell>
        <mxCell id="eLIDJb3raY8ClQRbz5P2-7" value="&lt;font style=&quot;font-size: 12px;&quot;&gt;User&lt;/font&gt;" style="shape=folder;fontStyle=1;spacingTop=10;tabWidth=50;tabHeight=17;tabPosition=left;html=1;rounded=0;shadow=0;comic=0;labelBackgroundColor=none;strokeColor=#000000;strokeWidth=1;fillColor=#ffffff;fontFamily=Verdana;fontSize=10;fontColor=#000000;align=center;" vertex="1" parent="1">
          <mxGeometry x="207" y="130" width="112" height="70" as="geometry" />
        </mxCell>
        <mxCell id="eLIDJb3raY8ClQRbz5P2-8" value="&lt;span style=&quot;font-size: 12px;&quot;&gt;Category&lt;/span&gt;" style="shape=folder;fontStyle=1;spacingTop=10;tabWidth=50;tabHeight=17;tabPosition=left;html=1;rounded=0;shadow=0;comic=0;labelBackgroundColor=none;strokeColor=#000000;strokeWidth=1;fillColor=#ffffff;fontFamily=Verdana;fontSize=10;fontColor=#000000;align=center;" vertex="1" parent="1">
          <mxGeometry x="391.5" y="350" width="112" height="70" as="geometry" />
        </mxCell>
        <mxCell id="eLIDJb3raY8ClQRbz5P2-9" value="&lt;span style=&quot;font-size: 12px;&quot;&gt;Item&lt;/span&gt;" style="shape=folder;fontStyle=1;spacingTop=10;tabWidth=50;tabHeight=17;tabPosition=left;html=1;rounded=0;shadow=0;comic=0;labelBackgroundColor=none;strokeColor=#000000;strokeWidth=1;fillColor=#ffffff;fontFamily=Verdana;fontSize=10;fontColor=#000000;align=center;" vertex="1" parent="1">
          <mxGeometry x="570" y="290" width="112" height="70" as="geometry" />
        </mxCell>
        <mxCell id="eLIDJb3raY8ClQRbz5P2-10" value="&lt;span style=&quot;font-size: 12px;&quot;&gt;Authentification&lt;/span&gt;" style="shape=folder;fontStyle=1;spacingTop=10;tabWidth=50;tabHeight=17;tabPosition=left;html=1;rounded=0;shadow=0;comic=0;labelBackgroundColor=none;strokeColor=#000000;strokeWidth=1;fillColor=#ffffff;fontFamily=Verdana;fontSize=10;fontColor=#000000;align=center;" vertex="1" parent="1">
          <mxGeometry x="391.5" y="520" width="112" height="70" as="geometry" />
        </mxCell>
        <mxCell id="eLIDJb3raY8ClQRbz5P2-11" value="&lt;span style=&quot;font-size: 12px;&quot;&gt;Order&lt;/span&gt;" style="shape=folder;fontStyle=1;spacingTop=10;tabWidth=50;tabHeight=17;tabPosition=left;html=1;rounded=0;shadow=0;comic=0;labelBackgroundColor=none;strokeColor=#000000;strokeWidth=1;fillColor=#ffffff;fontFamily=Verdana;fontSize=10;fontColor=#000000;align=center;" vertex="1" parent="1">
          <mxGeometry x="570" y="130" width="112" height="70" as="geometry" />
        </mxCell>
        <mxCell id="eLIDJb3raY8ClQRbz5P2-12" value="Access" style="html=1;verticalAlign=bottom;endArrow=open;dashed=1;endSize=8;curved=0;rounded=0;exitX=0.5;exitY=1;exitDx=0;exitDy=0;exitPerimeter=0;" edge="1" parent="1" source="eLIDJb3raY8ClQRbz5P2-5">
          <mxGeometry relative="1" as="geometry">
            <mxPoint x="780" y="380" as="sourcePoint" />
            <mxPoint x="448" y="540" as="targetPoint" />
          </mxGeometry>
        </mxCell>
        <mxCell id="eLIDJb3raY8ClQRbz5P2-13" value="Access" style="html=1;verticalAlign=bottom;endArrow=open;dashed=1;endSize=8;curved=0;rounded=0;entryX=0;entryY=0;entryDx=0;entryDy=43.5;entryPerimeter=0;exitX=0;exitY=0;exitDx=112;exitDy=43.5;exitPerimeter=0;" edge="1" parent="1" source="eLIDJb3raY8ClQRbz5P2-7" target="eLIDJb3raY8ClQRbz5P2-11">
          <mxGeometry relative="1" as="geometry">
            <mxPoint x="551.5" y="220" as="sourcePoint" />
            <mxPoint x="300.5" y="220" as="targetPoint" />
          </mxGeometry>
        </mxCell>
        <mxCell id="eLIDJb3raY8ClQRbz5P2-14" value="Access" style="html=1;verticalAlign=bottom;endArrow=open;dashed=1;endSize=8;curved=0;rounded=0;entryX=0.514;entryY=0.317;entryDx=0;entryDy=0;entryPerimeter=0;exitX=0.5;exitY=1;exitDx=0;exitDy=0;exitPerimeter=0;" edge="1" parent="1" source="eLIDJb3raY8ClQRbz5P2-11" target="eLIDJb3raY8ClQRbz5P2-9">
          <mxGeometry relative="1" as="geometry">
            <mxPoint x="601" y="250" as="sourcePoint" />
            <mxPoint x="350" y="250" as="targetPoint" />
          </mxGeometry>
        </mxCell>
        <mxCell id="eLIDJb3raY8ClQRbz5P2-15" value="Access" style="html=1;verticalAlign=bottom;endArrow=open;dashed=1;endSize=8;curved=0;rounded=0;entryX=0;entryY=0;entryDx=0;entryDy=43.5;entryPerimeter=0;exitX=0;exitY=0;exitDx=112;exitDy=43.5;exitPerimeter=0;" edge="1" parent="1" source="eLIDJb3raY8ClQRbz5P2-6" target="eLIDJb3raY8ClQRbz5P2-8">
          <mxGeometry relative="1" as="geometry">
            <mxPoint x="442.5" y="316.75" as="sourcePoint" />
            <mxPoint x="370" y="240" as="targetPoint" />
          </mxGeometry>
        </mxCell>
        <mxCell id="eLIDJb3raY8ClQRbz5P2-16" value="Access" style="html=1;verticalAlign=bottom;endArrow=open;dashed=1;endSize=8;curved=0;rounded=0;entryX=0;entryY=0;entryDx=0;entryDy=43.5;entryPerimeter=0;exitX=0;exitY=0;exitDx=112;exitDy=43.5;exitPerimeter=0;" edge="1" parent="1" source="eLIDJb3raY8ClQRbz5P2-8" target="eLIDJb3raY8ClQRbz5P2-9">
          <mxGeometry relative="1" as="geometry">
            <mxPoint x="536.5" y="260" as="sourcePoint" />
            <mxPoint x="469.99999999999955" y="306.75" as="targetPoint" />
          </mxGeometry>
        </mxCell>
      </root>
    </mxGraphModel>
  </diagram>
</mxfile>
